<svg width="423" height="237" viewBox="0 0 423 237" fill="none" xmlns="http://www.w3.org/2000/svg">
<g clip-path="url(#clip0_143_6643)">
<rect y="0.464355" width="423" height="237" rx="10" fill="black"/>
<mask id="path-3-inside-1_143_6643" fill="white">
<path fill-rule="evenodd" clip-rule="evenodd" d="M224.431 79.9807C224.493 78.4433 222.432 77.8823 221.706 79.2386L209.171 102.637L201.849 96.2651C200.877 95.4191 199.394 96.3525 199.559 97.7063L200.893 108.616L181.362 109.479C179.954 109.542 179.454 111.375 180.637 112.143L197.034 122.789L190.354 131.516C189.525 132.599 190.33 134.155 191.596 133.919L201.138 132.139L200.08 158.662C200.018 160.199 202.079 160.761 202.805 159.404L215.34 136.006L222.662 142.378C223.634 143.224 225.117 142.29 224.952 140.936L223.618 130.027L243.148 129.164C244.557 129.101 245.056 127.268 243.873 126.5L227.476 115.854L234.157 107.127C234.986 106.044 234.181 104.487 232.914 104.724L223.373 106.504L224.431 79.9807Z"/>
</mask>
<path fill-rule="evenodd" clip-rule="evenodd" d="M224.431 79.9807C224.493 78.4433 222.432 77.8823 221.706 79.2386L209.171 102.637L201.849 96.2651C200.877 95.4191 199.394 96.3525 199.559 97.7063L200.893 108.616L181.362 109.479C179.954 109.542 179.454 111.375 180.637 112.143L197.034 122.789L190.354 131.516C189.525 132.599 190.33 134.155 191.596 133.919L201.138 132.139L200.08 158.662C200.018 160.199 202.079 160.761 202.805 159.404L215.34 136.006L222.662 142.378C223.634 143.224 225.117 142.29 224.952 140.936L223.618 130.027L243.148 129.164C244.557 129.101 245.056 127.268 243.873 126.5L227.476 115.854L234.157 107.127C234.986 106.044 234.181 104.487 232.914 104.724L223.373 106.504L224.431 79.9807Z" fill="white"/>
<path d="M221.706 79.2386L222.983 79.923L222.983 79.923L221.706 79.2386ZM224.431 79.9807L225.88 80.0385L225.88 80.0385L224.431 79.9807ZM209.171 102.637L208.22 103.73L209.591 104.923L210.449 103.321L209.171 102.637ZM201.849 96.2651L202.8 95.1718L202.8 95.1718L201.849 96.2651ZM199.559 97.7063L198.121 97.8822L198.121 97.8822L199.559 97.7063ZM200.893 108.616L200.957 110.064L202.522 109.995L202.332 108.44L200.893 108.616ZM181.362 109.479L181.298 108.031L181.298 108.031L181.362 109.479ZM180.637 112.143L179.848 113.359L179.848 113.359L180.637 112.143ZM197.034 122.789L198.185 123.669L199.137 122.426L197.823 121.573L197.034 122.789ZM190.354 131.516L191.505 132.397L191.505 132.397L190.354 131.516ZM191.596 133.919L191.331 132.494L191.596 133.919ZM201.138 132.139L202.586 132.197L202.659 130.381L200.872 130.714L201.138 132.139ZM200.08 158.662L198.631 158.604L200.08 158.662ZM202.805 159.404L201.528 158.72L202.805 159.404ZM215.34 136.006L216.291 134.912L214.92 133.719L214.062 135.321L215.34 136.006ZM222.662 142.378L221.711 143.471L222.662 142.378ZM224.952 140.936L223.513 141.112L223.513 141.112L224.952 140.936ZM223.618 130.027L223.554 128.579L221.989 128.648L222.179 130.203L223.618 130.027ZM243.148 129.164L243.212 130.611L243.148 129.164ZM243.873 126.5L243.084 127.716L243.084 127.716L243.873 126.5ZM227.476 115.854L226.325 114.973L225.373 116.217L226.687 117.07L227.476 115.854ZM234.157 107.127L233.006 106.246L233.006 106.246L234.157 107.127ZM232.914 104.724L232.648 103.299L232.914 104.724ZM223.373 106.504L221.925 106.446L221.852 108.262L223.639 107.928L223.373 106.504ZM222.983 79.923C222.99 79.9104 222.995 79.9039 222.996 79.9017C222.998 79.8995 222.998 79.9002 222.995 79.9027C222.992 79.9051 222.989 79.908 222.984 79.9109C222.979 79.9138 222.974 79.916 222.97 79.9175C222.962 79.9207 222.959 79.9203 222.963 79.9201C222.966 79.92 222.974 79.9204 222.983 79.923C222.993 79.9255 222.999 79.929 223.002 79.931C223.005 79.9328 223.002 79.9315 222.997 79.9247C222.994 79.9214 222.991 79.9171 222.989 79.9123C222.986 79.9073 222.984 79.9028 222.983 79.8994C222.982 79.8959 222.982 79.8951 222.983 79.8979C222.983 79.9007 222.984 79.9087 222.983 79.923L225.88 80.0385C226.002 76.9637 221.881 75.8415 220.428 78.5542L222.983 79.923ZM210.449 103.321L222.983 79.923L220.428 78.5542L207.894 101.953L210.449 103.321ZM200.897 97.3585L208.22 103.73L210.123 101.544L202.8 95.1718L200.897 97.3585ZM200.998 97.5305C200.992 97.4782 201.002 97.45 201.01 97.4336C201.021 97.4112 201.037 97.3951 201.05 97.3874C201.062 97.3794 201.048 97.3931 201.003 97.3914C200.98 97.3905 200.954 97.3854 200.931 97.3761C200.907 97.3666 200.896 97.3572 200.897 97.3585L202.8 95.1718C201.762 94.2685 200.436 94.3487 199.505 94.9342C198.59 95.5107 197.966 96.6129 198.121 97.8822L200.998 97.5305ZM202.332 108.44L200.998 97.5305L198.121 97.8822L199.454 108.792L202.332 108.44ZM181.426 110.927L200.957 110.064L200.829 107.168L181.298 108.031L181.426 110.927ZM181.426 110.927L181.426 110.927L181.298 108.031C178.481 108.156 177.482 111.823 179.848 113.359L181.426 110.927ZM197.823 121.573L181.426 110.927L179.848 113.359L196.245 124.004L197.823 121.573ZM191.505 132.397L198.185 123.669L195.883 121.908L189.203 130.635L191.505 132.397ZM191.331 132.494C191.329 132.495 191.343 132.492 191.368 132.496C191.393 132.5 191.418 132.508 191.438 132.519C191.478 132.541 191.483 132.56 191.477 132.547C191.47 132.534 191.464 132.511 191.466 132.486C191.467 132.468 191.473 132.439 191.505 132.397L189.203 130.635C188.426 131.65 188.405 132.917 188.902 133.878C189.407 134.854 190.51 135.596 191.862 135.344L191.331 132.494ZM200.872 130.714L191.331 132.494L191.862 135.344L201.404 133.564L200.872 130.714ZM201.528 158.72L202.586 132.197L199.69 132.081L198.631 158.604L201.528 158.72ZM201.528 158.72C201.521 158.732 201.516 158.739 201.515 158.741C201.513 158.743 201.513 158.743 201.516 158.74C201.519 158.738 201.522 158.735 201.527 158.732C201.532 158.729 201.537 158.727 201.541 158.725C201.549 158.722 201.552 158.722 201.548 158.723C201.545 158.723 201.537 158.722 201.528 158.72C201.518 158.717 201.512 158.714 201.509 158.712C201.506 158.71 201.509 158.711 201.514 158.718C201.517 158.721 201.52 158.726 201.522 158.73C201.525 158.735 201.527 158.74 201.528 158.743C201.529 158.747 201.529 158.748 201.529 158.745C201.528 158.742 201.527 158.734 201.528 158.72L198.631 158.604C198.509 161.679 202.63 162.801 204.083 160.089L201.528 158.72ZM214.062 135.321L201.528 158.72L204.083 160.089L216.617 136.69L214.062 135.321ZM223.614 141.284L216.291 134.912L214.388 137.099L221.711 143.471L223.614 141.284ZM223.513 141.112C223.519 141.165 223.509 141.193 223.501 141.209C223.49 141.232 223.474 141.248 223.461 141.255C223.449 141.263 223.463 141.25 223.508 141.251C223.531 141.252 223.557 141.257 223.58 141.267C223.604 141.276 223.615 141.286 223.614 141.284L221.711 143.471C222.749 144.374 224.075 144.294 225.006 143.709C225.921 143.132 226.545 142.03 226.39 140.761L223.513 141.112ZM222.179 130.203L223.513 141.112L226.39 140.761L225.057 129.851L222.179 130.203ZM243.084 127.716L223.554 128.579L223.682 131.475L243.212 130.611L243.084 127.716ZM243.084 127.716L243.084 127.716L243.212 130.611C246.029 130.487 247.028 126.82 244.662 125.284L243.084 127.716ZM226.687 117.07L243.084 127.716L244.662 125.284L228.265 114.639L226.687 117.07ZM233.006 106.246L226.325 114.973L228.627 116.735L235.307 108.008L233.006 106.246ZM233.18 106.149C233.182 106.148 233.167 106.151 233.142 106.147C233.117 106.143 233.093 106.134 233.072 106.123C233.032 106.102 233.027 106.083 233.034 106.096C233.04 106.109 233.047 106.131 233.045 106.156C233.043 106.175 233.038 106.204 233.006 106.246L235.307 108.008C236.085 106.992 236.106 105.726 235.609 104.765C235.104 103.788 234.001 103.047 232.648 103.299L233.18 106.149ZM223.639 107.928L233.18 106.149L232.648 103.299L223.107 105.079L223.639 107.928ZM222.983 79.923L221.925 106.446L224.821 106.561L225.88 80.0385L222.983 79.923Z" fill="white" mask="url(#path-3-inside-1_143_6643)"/>
</g>
<defs>
<clipPath id="clip0_143_6643">
<rect width="423" height="237" fill="white"/>
</clipPath>
</defs>
</svg>
