<svg width="423" height="423" viewBox="0 0 423 423" fill="none" xmlns="http://www.w3.org/2000/svg">
<g clip-path="url(#clip0_143_6644)">
<rect width="423" height="423" rx="10" fill="black"/>
<mask id="path-2-inside-1_143_6644" fill="white">
<path fill-rule="evenodd" clip-rule="evenodd" d="M224.431 172.231C224.493 170.694 222.432 170.133 221.706 171.489L209.171 194.887L201.849 188.516C200.877 187.67 199.394 188.603 199.559 189.957L200.893 200.867L181.362 201.73C179.954 201.792 179.454 203.626 180.637 204.393L197.034 215.039L190.354 223.767C189.525 224.85 190.33 226.406 191.596 226.169L201.138 224.39L200.08 250.912C200.018 252.45 202.079 253.011 202.805 251.655L215.34 228.256L222.662 234.628C223.634 235.474 225.117 234.541 224.952 233.187L223.618 222.277L243.148 221.414C244.557 221.352 245.056 219.518 243.873 218.75L227.476 208.105L234.157 199.377C234.986 198.294 234.181 196.738 232.914 196.974L223.373 198.754L224.431 172.231Z"/>
</mask>
<path fill-rule="evenodd" clip-rule="evenodd" d="M224.431 172.231C224.493 170.694 222.432 170.133 221.706 171.489L209.171 194.887L201.849 188.516C200.877 187.67 199.394 188.603 199.559 189.957L200.893 200.867L181.362 201.73C179.954 201.792 179.454 203.626 180.637 204.393L197.034 215.039L190.354 223.767C189.525 224.85 190.33 226.406 191.596 226.169L201.138 224.39L200.08 250.912C200.018 252.45 202.079 253.011 202.805 251.655L215.34 228.256L222.662 234.628C223.634 235.474 225.117 234.541 224.952 233.187L223.618 222.277L243.148 221.414C244.557 221.352 245.056 219.518 243.873 218.75L227.476 208.105L234.157 199.377C234.986 198.294 234.181 196.738 232.914 196.974L223.373 198.754L224.431 172.231Z" fill="white"/>
<path d="M221.706 171.489L222.983 172.173L222.983 172.173L221.706 171.489ZM224.431 172.231L225.88 172.289L225.88 172.289L224.431 172.231ZM209.171 194.887L208.22 195.981L209.591 197.174L210.449 195.572L209.171 194.887ZM201.849 188.516L202.8 187.422L202.8 187.422L201.849 188.516ZM199.559 189.957L198.121 190.133L198.121 190.133L199.559 189.957ZM200.893 200.867L200.957 202.315L202.522 202.246L202.332 200.691L200.893 200.867ZM181.362 201.73L181.298 200.282L181.298 200.282L181.362 201.73ZM180.637 204.393L179.848 205.609L179.848 205.609L180.637 204.393ZM197.034 215.039L198.185 215.92L199.137 214.676L197.823 213.823L197.034 215.039ZM190.354 223.767L191.505 224.648L191.505 224.648L190.354 223.767ZM191.596 226.169L191.331 224.745L191.596 226.169ZM201.138 224.39L202.586 224.447L202.659 222.632L200.872 222.965L201.138 224.39ZM200.08 250.912L198.631 250.855L200.08 250.912ZM202.805 251.655L201.528 250.97L202.805 251.655ZM215.34 228.256L216.291 227.163L214.92 225.97L214.062 227.572L215.34 228.256ZM222.662 234.628L221.711 235.721L222.662 234.628ZM224.952 233.187L223.513 233.363L223.513 233.363L224.952 233.187ZM223.618 222.277L223.554 220.829L221.989 220.898L222.179 222.453L223.618 222.277ZM243.148 221.414L243.212 222.862L243.148 221.414ZM243.873 218.75L243.084 219.966L243.084 219.966L243.873 218.75ZM227.476 208.105L226.325 207.224L225.373 208.468L226.687 209.32L227.476 208.105ZM234.157 199.377L233.006 198.496L233.006 198.496L234.157 199.377ZM232.914 196.974L232.648 195.549L232.914 196.974ZM223.373 198.754L221.925 198.696L221.852 200.512L223.639 200.179L223.373 198.754ZM222.983 172.173C222.99 172.161 222.995 172.154 222.996 172.152C222.998 172.15 222.998 172.151 222.995 172.153C222.992 172.156 222.989 172.158 222.984 172.161C222.979 172.164 222.974 172.166 222.97 172.168C222.962 172.171 222.959 172.171 222.963 172.171C222.966 172.17 222.974 172.171 222.983 172.173C222.993 172.176 222.999 172.179 223.002 172.181C223.005 172.183 223.002 172.182 222.997 172.175C222.994 172.172 222.991 172.168 222.989 172.163C222.986 172.158 222.984 172.153 222.983 172.15C222.982 172.146 222.982 172.146 222.983 172.148C222.983 172.151 222.984 172.159 222.983 172.173L225.88 172.289C226.002 169.214 221.881 168.092 220.428 170.805L222.983 172.173ZM210.449 195.572L222.983 172.173L220.428 170.805L207.894 194.203L210.449 195.572ZM200.897 189.609L208.22 195.981L210.123 193.794L202.8 187.422L200.897 189.609ZM200.998 189.781C200.992 189.729 201.002 189.701 201.01 189.684C201.021 189.662 201.037 189.646 201.05 189.638C201.062 189.63 201.048 189.644 201.003 189.642C200.98 189.641 200.954 189.636 200.931 189.627C200.907 189.617 200.896 189.608 200.897 189.609L202.8 187.422C201.762 186.519 200.436 186.599 199.505 187.185C198.59 187.761 197.966 188.863 198.121 190.133L200.998 189.781ZM202.332 200.691L200.998 189.781L198.121 190.133L199.454 201.043L202.332 200.691ZM181.426 203.178L200.957 202.315L200.829 199.419L181.298 200.282L181.426 203.178ZM181.426 203.178L181.426 203.178L181.298 200.282C178.481 200.406 177.482 204.073 179.848 205.609L181.426 203.178ZM197.823 213.823L181.426 203.178L179.848 205.609L196.245 216.255L197.823 213.823ZM191.505 224.648L198.185 215.92L195.883 214.158L189.203 222.886L191.505 224.648ZM191.331 224.745C191.329 224.745 191.343 224.742 191.368 224.746C191.393 224.75 191.418 224.759 191.438 224.77C191.478 224.791 191.483 224.81 191.477 224.797C191.47 224.784 191.464 224.762 191.466 224.737C191.467 224.719 191.473 224.689 191.505 224.648L189.203 222.886C188.426 223.901 188.405 225.167 188.902 226.129C189.407 227.105 190.51 227.847 191.862 227.594L191.331 224.745ZM200.872 222.965L191.331 224.745L191.862 227.594L201.404 225.814L200.872 222.965ZM201.528 250.97L202.586 224.447L199.69 224.332L198.631 250.855L201.528 250.97ZM201.528 250.97C201.521 250.983 201.516 250.989 201.515 250.992C201.513 250.994 201.513 250.993 201.516 250.991C201.519 250.988 201.522 250.985 201.527 250.982C201.532 250.979 201.537 250.977 201.541 250.976C201.549 250.973 201.552 250.973 201.548 250.973C201.545 250.973 201.537 250.973 201.528 250.97C201.518 250.968 201.512 250.964 201.509 250.962C201.506 250.96 201.509 250.962 201.514 250.968C201.517 250.972 201.52 250.976 201.522 250.981C201.525 250.986 201.527 250.99 201.528 250.994C201.529 250.997 201.529 250.998 201.529 250.995C201.528 250.993 201.527 250.985 201.528 250.97L198.631 250.855C198.509 253.93 202.63 255.052 204.083 252.339L201.528 250.97ZM214.062 227.572L201.528 250.97L204.083 252.339L216.617 228.941L214.062 227.572ZM223.614 233.535L216.291 227.163L214.388 229.35L221.711 235.721L223.614 233.535ZM223.513 233.363C223.519 233.415 223.509 233.443 223.501 233.46C223.49 233.482 223.474 233.498 223.461 233.506C223.449 233.514 223.463 233.5 223.508 233.502C223.531 233.503 223.557 233.508 223.58 233.517C223.604 233.527 223.615 233.536 223.614 233.535L221.711 235.721C222.749 236.625 224.075 236.545 225.006 235.959C225.921 235.383 226.545 234.28 226.39 233.011L223.513 233.363ZM222.179 222.453L223.513 233.363L226.39 233.011L225.057 222.101L222.179 222.453ZM243.084 219.966L223.554 220.829L223.682 223.725L243.212 222.862L243.084 219.966ZM243.084 219.966L243.084 219.966L243.212 222.862C246.029 222.737 247.028 219.071 244.662 217.535L243.084 219.966ZM226.687 209.32L243.084 219.966L244.662 217.535L228.265 206.889L226.687 209.32ZM233.006 198.496L226.325 207.224L228.627 208.986L235.307 200.258L233.006 198.496ZM233.18 198.399C233.182 198.399 233.167 198.401 233.142 198.397C233.117 198.393 233.093 198.385 233.072 198.374C233.032 198.352 233.027 198.334 233.034 198.347C233.04 198.36 233.047 198.382 233.045 198.407C233.043 198.425 233.038 198.454 233.006 198.496L235.307 200.258C236.085 199.243 236.106 197.976 235.609 197.015C235.104 196.039 234.001 195.297 232.648 195.549L233.18 198.399ZM223.639 200.179L233.18 198.399L232.648 195.549L223.107 197.329L223.639 200.179ZM222.983 172.173L221.925 198.696L224.821 198.812L225.88 172.289L222.983 172.173Z" fill="white" mask="url(#path-2-inside-1_143_6644)"/>
</g>
<defs>
<clipPath id="clip0_143_6644">
<rect width="423" height="423" fill="white"/>
</clipPath>
</defs>
</svg>
