<svg width="24" height="24" viewBox="0 0 24 24" fill="none" xmlns="http://www.w3.org/2000/svg">
<path fill-rule="evenodd" clip-rule="evenodd" d="M12 24C18.6274 24 24 18.6274 24 12C24 5.37258 18.6274 0 12 0C5.37258 0 0 5.37258 0 12C0 18.6274 5.37258 24 12 24ZM16.7071 7.29289C17.0976 7.68342 17.0976 8.31658 16.7071 8.70711L13.4142 12L16.707 15.2929C17.0976 15.6834 17.0976 16.3166 16.707 16.7071C16.3165 17.0977 15.6834 17.0977 15.2928 16.7071L12 13.4143L8.70718 16.707C8.31665 17.0976 7.68349 17.0976 7.29296 16.707C6.90244 16.3165 6.90244 15.6834 7.29296 15.2928L10.5857 12L7.29289 8.7072C6.90237 8.31668 6.90237 7.68351 7.29289 7.29299C7.68342 6.90246 8.31658 6.90246 8.70711 7.29299L12 10.5858L15.2929 7.29289C15.6834 6.90237 16.3166 6.90237 16.7071 7.29289Z" fill="#C5C9D6"/>
</svg>
