<svg width="36" height="36" viewBox="0 0 36 36" fill="none" xmlns="http://www.w3.org/2000/svg">
<path fill-rule="evenodd" clip-rule="evenodd" d="M24 15.5C24 20.1944 20.1944 24 15.5 24C10.8056 24 7 20.1944 7 15.5C7 10.8056 10.8056 7 15.5 7C20.1944 7 24 10.8056 24 15.5ZM22.3351 24.7493C20.4243 26.1636 18.0598 27 15.5 27C9.14873 27 4 21.8513 4 15.5C4 9.14873 9.14873 4 15.5 4C21.8513 4 27 9.14873 27 15.5C27 18.5703 25.7968 21.3595 23.8362 23.422L24.6407 24.2265C25.4077 23.7736 26.4121 23.8766 27.0711 24.5355L31.3137 28.7782C32.0948 29.5592 32.0948 30.8256 31.3137 31.6066L30.6066 32.3137C29.8256 33.0948 28.5592 33.0948 27.7782 32.3137L23.5355 28.0711C22.8766 27.4121 22.7736 26.4077 23.2265 25.6407L22.3351 24.7493Z" fill="#5755D5"/>
</svg>
