<svg width="43" height="54" viewBox="0 0 43 54" fill="none" xmlns="http://www.w3.org/2000/svg">
<path fill-rule="evenodd" clip-rule="evenodd" d="M29.6164 1.34025C29.6564 0.33783 28.3129 -0.0279928 27.8392 0.856335L19.6666 16.1123L14.8925 11.9579C14.2586 11.4063 13.2918 12.0149 13.3997 12.8976L14.2693 20.011L1.53521 20.5738C0.616652 20.6144 0.291163 21.8098 1.06234 22.3105L11.7531 29.2514L7.39733 34.942C6.8568 35.6482 7.38155 36.6628 8.2076 36.5087L14.429 35.3482L13.7389 52.6415C13.6989 53.644 15.0424 54.0098 15.5162 53.1255L23.6887 37.8694L28.4629 42.0239C29.0968 42.5755 30.0636 41.967 29.9557 41.0842L29.0861 33.9709L41.8201 33.4081C42.7387 33.3675 43.0642 32.172 42.293 31.6714L31.602 24.7303L35.9577 19.0398C36.4982 18.3336 35.9735 17.3189 35.1474 17.473L28.9264 18.6335L29.6164 1.34025Z" fill="#DCDBFF"/>
</svg>
