<svg width="28" height="29" viewBox="0 0 28 29" fill="none" xmlns="http://www.w3.org/2000/svg">
<path fill-rule="evenodd" clip-rule="evenodd" d="M20 11.5C20 16.1944 16.1944 20 11.5 20C6.80558 20 3 16.1944 3 11.5C3 6.80558 6.80558 3 11.5 3C16.1944 3 20 6.80558 20 11.5ZM18.3351 20.7493C16.4243 22.1636 14.0598 23 11.5 23C5.14873 23 0 17.8513 0 11.5C0 5.14873 5.14873 0 11.5 0C17.8513 0 23 5.14873 23 11.5C23 14.5703 21.7968 17.3595 19.8362 19.422L20.6407 20.2265C21.4077 19.7736 22.4121 19.8766 23.0711 20.5355L27.3137 24.7782C28.0948 25.5592 28.0948 26.8256 27.3137 27.6066L26.6066 28.3137C25.8256 29.0948 24.5592 29.0948 23.7782 28.3137L19.5355 24.0711C18.8766 23.4121 18.7736 22.4077 19.2265 21.6407L18.3351 20.7493Z" fill="white"/>
</svg>
